# xmcd
#
# Track frame offsets:
#	150
#	11906
#	29303
#	43911
#	61378
#	79677
#	96179
#	113569
#	124202
#	138116
#	158980
#	174785
#	193409
#	212547
#	224334
#	245114
#	258892
#	273225
#	289019
#	309757
#
# Disc length: 4370 seconds
#
# Revision: 0
# Processed by: cddbd v1.4PL0 Copyright (c) Steve Scherf et al.
# Submitted via: EasyCDDAExtractor 4.6.0.1
#
DISCID=1c111014
DTITLE=Vários - 20 sucessos gaúchos vol. 3
DYEAR=2000
DGENRE=nativista
TTITLE0=Porca véia - vou deixar saudade
TTITLE1=Garotos de ouro - chora no ombro do véio
TTITLE2=João luiz corrêa - tá chiando a chaleira
TTITLE3=Bando gaúcho - o jeitão do gaudério
TTITLE4=José cláudio machado - cantar galponeiro
TTITLE5=Manolo - vire o mate
TTITLE6=Piazitos do fandango - nós
TTITLE7=Marcello caminha - baile de candeeiro
TTITLE8=Porca véia - lá fora
TTITLE9=Bando gaúcho - dá-lhe pata
TTITLE10=João luiz correa - recanto da natureza
TTITLE11=Leopoldo rasier - pilchas
TTITLE12=Jorge guedes - costeira
TTITLE13=Dante ramon ledesma - sapecando o chamamé
TTITLE14=Garotos de ouro - linda flor
TTITLE15=Fernando toloeken and valdomiro maicá - noite pampeana
TTITLE16=Marcio correia - ternura dos teus olhos
TTITLE17=Elton saldanha - amigo
TTITLE18=Wilsom paim - poncho molhado
TTITLE19=Grupo balansso - sou peão
EXTD=
EXTT0=
EXTT1=
EXTT2=
EXTT3=
EXTT4=
EXTT5=
EXTT6=
EXTT7=
EXTT8=
EXTT9=
EXTT10=
EXTT11=
EXTT12=
EXTT13=
EXTT14=
EXTT15=
EXTT16=
EXTT17=
EXTT18=
EXTT19=
PLAYORDER=
